<svg width="3319" height="1964" viewBox="0 0 3319 1964" fill="none" xmlns="http://www.w3.org/2000/svg">
<rect width="3319" height="1964" fill="white"/>
<path d="M1959.56 957.233C1877.84 880.999 1771.27 839.047 1659.49 839.047C1547.72 839.047 1441.15 881.007 1359.42 957.233C1352.42 963.741 1348.41 972.94 1348.41 982.497C1348.41 992.026 1352.42 1001.25 1359.42 1007.79C1441.15 1083.99 1547.69 1125.96 1659.49 1125.96C1771.29 1125.96 1877.86 1084 1959.59 1007.77C1966.57 1001.26 1970.58 992.036 1970.58 982.507C1970.58 972.951 1966.57 963.751 1959.57 957.243L1959.56 957.233ZM1659.49 1100.33C1594.52 1100.33 1541.66 1047.47 1541.66 982.494C1541.66 917.519 1594.52 864.66 1659.49 864.66C1724.47 864.66 1777.33 917.522 1777.33 982.494C1777.33 1047.47 1724.47 1100.33 1659.49 1100.33ZM1373.02 982.494C1373.02 979.721 1374.15 977.139 1376.21 975.217C1430.5 924.606 1496.41 890.06 1567.45 873.973C1536.66 900.116 1517.06 939.053 1517.06 982.505C1517.06 1025.96 1536.66 1064.89 1567.45 1091.04C1496.41 1074.97 1430.47 1040.43 1376.21 989.792C1374.15 987.898 1373.02 985.289 1373.02 982.515V982.494ZM1942.78 989.771C1888.49 1040.41 1822.58 1074.93 1751.52 1091.02C1782.33 1064.87 1801.93 1025.93 1801.93 982.484C1801.93 939.036 1782.33 900.098 1751.54 873.952C1822.58 890.017 1888.52 924.563 1942.81 975.196C1944.84 977.091 1945.96 979.699 1945.96 982.473C1945.96 985.247 1944.84 987.855 1942.78 989.75L1942.78 989.771Z" fill="black"/>
<path d="M1659.5 897.373C1612.49 897.373 1574.37 935.488 1574.37 982.5C1574.37 1029.51 1612.49 1067.63 1659.5 1067.63C1706.51 1067.63 1744.63 1029.51 1744.63 982.5C1744.63 935.488 1706.51 897.373 1659.5 897.373ZM1624.35 973.109C1611.8 973.109 1601.61 962.921 1601.61 950.372C1601.61 937.823 1611.8 927.634 1624.35 927.634C1636.9 927.634 1647.09 937.823 1647.09 950.372C1647.09 962.921 1636.9 973.109 1624.35 973.109Z" fill="black"/>
<g clip-path="url(#clip0_6_113)">
<path d="M2656.4 111.04C2652.31 111.246 2648.31 112.263 2644.63 114.03L2484.01 191.068C2479.86 193.061 2476.2 195.961 2473.33 199.552C2470.45 203.143 2468.42 207.334 2467.4 211.812L2427.77 384.86C2426.86 388.847 2426.75 392.976 2427.47 397.003C2428.19 401.03 2429.71 404.873 2431.94 408.305C2432.48 409.144 2433.07 409.956 2433.69 410.738L2544.86 549.494C2547.74 553.084 2551.39 555.983 2555.55 557.975C2559.7 559.967 2564.26 561.001 2568.87 561L2747.15 560.959C2751.76 560.962 2756.32 559.931 2760.47 557.943C2764.63 555.955 2768.28 553.06 2771.16 549.473L2882.29 410.697C2885.17 407.105 2887.2 402.913 2888.23 398.432C2889.26 393.952 2889.26 389.299 2888.23 384.818L2848.54 211.771C2847.52 207.292 2845.49 203.102 2842.61 199.511C2839.74 195.919 2836.08 193.02 2831.93 191.027L2671.29 114.03C2666.66 111.807 2661.54 110.779 2656.4 111.04Z" fill="white"/>
<path d="M2656.48 122.916C2652.62 123.112 2648.82 124.075 2645.33 125.749L2493.19 198.727C2489.26 200.615 2485.8 203.362 2483.07 206.764C2480.34 210.166 2478.42 214.136 2477.45 218.378L2439.92 382.306C2439.05 386.083 2438.95 389.995 2439.63 393.81C2440.31 397.625 2441.75 401.266 2443.87 404.516C2444.38 405.311 2444.93 406.08 2445.52 406.821L2550.83 538.265C2553.55 541.666 2557.01 544.412 2560.95 546.299C2564.89 548.186 2569.2 549.165 2573.57 549.165L2742.45 549.126C2746.82 549.129 2751.13 548.152 2755.07 546.269C2759.01 544.385 2762.47 541.643 2765.2 538.245L2870.46 406.782C2873.19 403.38 2875.11 399.408 2876.09 395.164C2877.06 390.92 2877.06 386.512 2876.09 382.267L2838.49 218.339C2837.52 214.097 2835.6 210.127 2832.88 206.725C2830.15 203.323 2826.69 200.576 2822.75 198.688L2670.59 125.749C2666.2 123.643 2661.35 122.669 2656.48 122.916Z" fill="#326CE5"/>
<path d="M2657.99 178.703C2652.96 178.704 2648.89 183.251 2648.89 188.861C2648.89 188.947 2648.9 189.029 2648.91 189.115C2648.9 189.877 2648.86 190.795 2648.89 191.459C2649.01 194.694 2649.71 197.171 2650.13 200.151C2650.9 206.531 2651.54 211.82 2651.14 216.736C2650.76 218.589 2649.4 220.285 2648.19 221.463L2647.97 225.331C2642.51 225.785 2637 226.617 2631.51 227.87C2607.86 233.26 2587.51 245.487 2572.01 261.996C2571 261.307 2569.24 260.04 2568.72 259.652C2567.09 259.872 2565.45 260.376 2563.31 259.124C2559.23 256.37 2555.52 252.569 2551.03 247.99C2548.97 245.799 2547.48 243.714 2545.04 241.602C2544.48 241.123 2543.64 240.474 2543.01 239.981C2541.1 238.451 2538.85 237.653 2536.67 237.578C2533.87 237.482 2531.18 238.581 2529.41 240.801C2526.28 244.749 2527.28 250.783 2531.65 254.28C2531.7 254.315 2531.74 254.343 2531.79 254.377C2532.39 254.866 2533.12 255.492 2533.67 255.901C2536.27 257.824 2538.64 258.809 2541.22 260.335C2546.67 263.712 2551.19 266.512 2554.77 269.887C2556.17 271.384 2556.41 274.021 2556.6 275.161L2559.52 277.779C2543.89 301.384 2536.66 330.542 2540.93 360.251L2537.12 361.364C2536.11 362.667 2534.69 364.718 2533.21 365.33C2528.52 366.811 2523.25 367.355 2516.88 368.025C2513.89 368.275 2511.31 368.126 2508.15 368.729C2507.45 368.861 2506.48 369.115 2505.71 369.295C2505.69 369.301 2505.66 369.309 2505.64 369.315C2505.59 369.324 2505.54 369.345 2505.5 369.354C2500.13 370.656 2496.68 375.608 2497.79 380.488C2498.9 385.369 2504.15 388.337 2509.55 387.169C2509.59 387.16 2509.64 387.158 2509.68 387.149C2509.74 387.135 2509.8 387.105 2509.86 387.09C2510.61 386.925 2511.55 386.74 2512.21 386.563C2515.33 385.726 2517.58 384.495 2520.39 383.418C2526.41 381.249 2531.4 379.436 2536.26 378.73C2538.29 378.57 2540.43 379.988 2541.5 380.586L2545.47 379.902C2554.6 408.333 2573.74 431.312 2597.98 445.731L2596.33 449.716C2596.93 451.263 2597.58 453.357 2597.14 454.885C2595.37 459.486 2592.34 464.343 2588.9 469.758C2587.23 472.259 2585.52 474.201 2584.01 477.063C2583.65 477.748 2583.19 478.801 2582.85 479.525C2580.5 484.552 2582.22 490.342 2586.72 492.515C2591.24 494.701 2596.86 492.395 2599.29 487.358C2599.29 487.351 2599.3 487.345 2599.31 487.338C2599.31 487.333 2599.3 487.324 2599.31 487.319C2599.65 486.605 2600.14 485.666 2600.44 484.994C2601.73 482.027 2602.15 479.484 2603.06 476.614C2605.47 470.538 2606.8 464.163 2610.11 460.191C2611.02 459.103 2612.5 458.685 2614.04 458.272L2616.1 454.521C2637.23 462.664 2660.88 464.849 2684.51 459.463C2689.9 458.235 2695.11 456.645 2700.14 454.736C2700.72 455.768 2701.79 457.753 2702.08 458.252C2703.64 458.762 2705.35 459.025 2706.73 461.085C2709.22 465.341 2710.91 470.376 2712.98 476.458C2713.89 479.328 2714.34 481.871 2715.63 484.838C2715.92 485.514 2716.41 486.466 2716.75 487.182C2719.18 492.236 2724.81 494.55 2729.34 492.358C2733.84 490.184 2735.56 484.395 2733.22 479.368C2732.87 478.644 2732.39 477.592 2732.03 476.907C2730.52 474.044 2728.81 472.122 2727.15 469.621C2723.7 464.207 2720.84 459.709 2719.07 455.107C2718.33 452.734 2719.2 451.258 2719.77 449.716C2719.43 449.319 2718.69 447.078 2718.25 446.024C2743.44 431.092 2762.02 407.256 2770.75 379.726C2771.93 379.912 2773.98 380.276 2774.64 380.41C2776.01 379.503 2777.27 378.32 2779.74 378.515C2784.6 379.221 2789.59 381.034 2795.62 383.203C2798.42 384.28 2800.68 385.531 2803.79 386.368C2804.45 386.545 2805.39 386.71 2806.14 386.876C2806.21 386.891 2806.26 386.92 2806.32 386.934C2806.36 386.943 2806.42 386.945 2806.46 386.954C2811.86 388.121 2817.1 385.154 2818.21 380.273C2819.32 375.393 2815.87 370.439 2810.5 369.139C2809.72 368.961 2808.62 368.658 2807.86 368.514C2804.69 367.911 2802.11 368.06 2799.12 367.811C2792.75 367.141 2787.48 366.596 2782.8 365.115C2780.88 364.371 2779.53 362.089 2778.86 361.149L2775.19 360.075C2777.09 346.227 2776.58 331.814 2773.28 317.394C2769.95 302.839 2764.06 289.527 2756.22 277.799C2757.16 276.938 2758.94 275.354 2759.45 274.888C2759.59 273.248 2759.47 271.528 2761.16 269.712C2764.74 266.336 2769.25 263.536 2774.7 260.159C2777.29 258.633 2779.68 257.649 2782.27 255.725C2782.86 255.29 2783.66 254.602 2784.27 254.104C2788.64 250.606 2789.65 244.572 2786.51 240.626C2783.38 236.679 2777.3 236.307 2772.93 239.805C2772.31 240.3 2771.46 240.944 2770.91 241.426C2768.46 243.538 2766.95 245.624 2764.89 247.814C2760.4 252.393 2756.69 256.214 2752.62 258.968C2750.85 260 2748.26 259.643 2747.09 259.573L2743.63 262.054C2723.88 241.264 2696.99 227.971 2668.03 225.389C2667.95 224.171 2667.85 221.969 2667.82 221.307C2666.63 220.168 2665.2 219.196 2664.84 216.736C2664.45 211.82 2665.11 206.531 2665.87 200.151C2666.3 197.171 2667 194.694 2667.12 191.459C2667.15 190.723 2667.1 189.656 2667.1 188.861C2667.1 183.251 2663.02 178.703 2657.99 178.703ZM2646.59 249.611L2643.88 297.567L2643.69 297.664C2643.51 301.955 2639.99 305.38 2635.67 305.38C2633.9 305.38 2632.27 304.81 2630.95 303.837L2630.87 303.876L2591.7 276.001C2603.74 264.118 2619.13 255.336 2636.88 251.291C2640.12 250.552 2643.36 250.004 2646.59 249.611ZM2669.41 249.611C2690.13 252.169 2709.29 261.587 2723.97 276.021L2685.06 303.72L2684.92 303.661C2681.47 306.194 2676.6 305.566 2673.91 302.177C2672.81 300.788 2672.23 299.156 2672.16 297.508L2672.12 297.489L2669.41 249.611ZM2577.49 293.914L2613.26 326.028L2613.22 326.223C2616.45 329.04 2616.92 333.929 2614.23 337.318C2613.13 338.706 2611.65 339.638 2610.07 340.072L2610.03 340.229L2564.19 353.512C2561.85 332.093 2566.88 311.273 2577.49 293.914ZM2738.24 293.933C2743.55 302.58 2747.57 312.237 2749.97 322.707C2752.34 333.051 2752.93 343.376 2751.95 353.355L2705.88 340.033L2705.84 339.838C2701.71 338.706 2699.18 334.492 2700.14 330.266C2700.53 328.535 2701.45 327.071 2702.69 325.988L2702.67 325.891L2738.24 293.933ZM2650.66 328.508H2665.31L2674.41 339.936L2671.15 354.195L2657.99 360.544L2644.8 354.176L2641.53 339.916L2650.66 328.508ZM2697.63 367.615C2698.25 367.584 2698.87 367.64 2699.48 367.752L2699.55 367.654L2746.97 375.702C2740.03 395.275 2726.75 412.232 2709.01 423.58L2690.6 378.945L2690.66 378.867C2688.97 374.922 2690.66 370.297 2694.55 368.416C2695.55 367.934 2696.59 367.668 2697.63 367.615ZM2617.99 367.81C2621.61 367.861 2624.85 370.383 2625.69 374.081C2626.09 375.812 2625.89 377.527 2625.24 379.042L2625.38 379.218L2607.17 423.404C2590.14 412.434 2576.58 396.01 2569.32 375.858L2616.33 367.85L2616.41 367.947C2616.94 367.85 2617.47 367.803 2617.99 367.81ZM2657.7 387.169C2658.96 387.122 2660.24 387.382 2661.46 387.969C2663.05 388.74 2664.28 389.953 2665.06 391.407H2665.23L2688.4 433.444C2685.4 434.456 2682.31 435.321 2679.14 436.042C2661.42 440.082 2643.75 438.858 2627.75 433.386L2650.87 391.427H2650.91C2652.3 388.824 2654.93 387.271 2657.7 387.169Z" fill="white"/>
</g>
<path fill-rule="evenodd" clip-rule="evenodd" d="M2909.56 1428.94C2867.4 1428.94 2829.3 1436.05 2801.23 1447.93C2787.19 1453.87 2775.64 1461 2767.32 1469.35C2759 1477.7 2753.87 1487.6 2753.87 1498.24V1700.43C2753.87 1704.21 2754.54 1707.88 2755.74 1711.43C2755.81 1711.63 2755.86 1711.82 2755.93 1712.02C2755.93 1712.03 2755.94 1712.03 2755.94 1712.04C2761.93 1729.16 2780.43 1742.59 2805.44 1752.42C2807.56 1753.25 2809.75 1754.05 2811.97 1754.83C2812.05 1754.86 2812.13 1754.89 2812.21 1754.92C2815.93 1756.22 2819.8 1757.43 2823.79 1758.58C2824.05 1758.66 2824.31 1758.74 2824.57 1758.81C2826.35 1759.32 2828.16 1759.81 2829.99 1760.28C2830.23 1760.34 2830.48 1760.4 2830.72 1760.46C2832.61 1760.95 2834.53 1761.42 2836.48 1761.86C2836.64 1761.9 2836.81 1761.94 2836.97 1761.98C2841.24 1762.95 2845.62 1763.84 2850.11 1764.64C2850.22 1764.66 2850.33 1764.68 2850.44 1764.7C2852.26 1765.02 2854.1 1765.32 2855.95 1765.62C2856.57 1765.72 2857.19 1765.81 2857.81 1765.9C2859.42 1766.15 2861.05 1766.38 2862.68 1766.6C2863.4 1766.7 2864.11 1766.8 2864.83 1766.89C2866.58 1767.12 2868.35 1767.32 2870.13 1767.52C2870.73 1767.59 2871.33 1767.65 2871.93 1767.72C2873.3 1767.86 2874.67 1768 2876.05 1768.13C2877.33 1768.25 2878.61 1768.37 2879.91 1768.47C2880.7 1768.54 2881.5 1768.6 2882.29 1768.66C2883.82 1768.77 2885.35 1768.89 2886.9 1768.99C2888.66 1769.1 2890.44 1769.18 2892.22 1769.27C2892.86 1769.3 2893.5 1769.34 2894.15 1769.37C2899.22 1769.58 2904.35 1769.69 2909.56 1769.69C2917.26 1769.69 2924.83 1769.45 2932.22 1768.99C2935.85 1768.77 2939.43 1768.46 2942.97 1768.13C2944.41 1768 2945.85 1767.87 2947.28 1767.72C2947.77 1767.67 2948.25 1767.6 2948.74 1767.55C2950.66 1767.33 2952.57 1767.11 2954.46 1766.87C2954.99 1766.8 2955.51 1766.73 2956.04 1766.66C2957.85 1766.42 2959.65 1766.16 2961.44 1765.89C2961.95 1765.82 2962.45 1765.73 2962.96 1765.65C2965 1765.33 2967.01 1765 2969 1764.64C2969 1764.64 2969.01 1764.64 2969.02 1764.64C2985.52 1761.7 3000.6 1757.56 3013.69 1752.42C3041.3 1741.58 3060.98 1726.33 3064.65 1706.58H3064.63C3065.01 1704.56 3065.21 1702.52 3065.21 1700.43V1498.24C3065.21 1496.29 3065.04 1494.36 3064.71 1492.46C3064.67 1492.13 3064.6 1491.8 3064.5 1491.47C3062.84 1483.41 3058.29 1475.9 3051.76 1469.35C3043.45 1461 3031.89 1453.87 3017.86 1447.93C2989.79 1436.05 2951.72 1428.94 2909.56 1428.94L2909.56 1428.94ZM2909.56 1440.69C2950.38 1440.69 2987.17 1447.73 3013.26 1458.77C3026.3 1464.29 3036.64 1470.8 3043.45 1477.64C3048.58 1482.79 3051.67 1487.96 3052.88 1493.16C3049.8 1505.82 3034.45 1519.28 3009.4 1529.12C2983.61 1539.25 2948.4 1545.6 2909.56 1545.6C2870.73 1545.6 2835.53 1539.26 2809.73 1529.12C2784.61 1519.25 2769.25 1505.74 2766.23 1493.06V1493.05C2767.46 1487.88 2770.54 1482.76 2775.64 1477.64C2782.44 1470.8 2792.79 1464.29 2805.83 1458.77C2831.91 1447.73 2868.74 1440.69 2909.56 1440.69L2909.56 1440.69ZM2765.62 1515.27C2774.73 1525.18 2788.6 1533.43 2805.44 1540.05C2833.05 1550.89 2869.45 1557.3 2909.56 1557.3C2949.66 1557.3 2986.08 1550.89 3013.69 1540.05C3030.49 1533.45 3044.35 1525.21 3053.46 1515.33V1561.87C3053.32 1562.19 3053.2 1562.52 3053.12 1562.86C3050.7 1575.84 3035.19 1589.77 3009.4 1599.9C2983.6 1610.03 2948.39 1616.38 2909.56 1616.38C2870.72 1616.38 2835.52 1610.03 2809.73 1599.9C2783.93 1589.77 2768.42 1575.84 2766.01 1562.86C2765.92 1562.47 2765.79 1562.1 2765.62 1561.74L2765.62 1515.27ZM2799.07 1558.96C2797.22 1558.97 2795.46 1559.7 2794.15 1561C2792.85 1562.31 2792.11 1564.07 2792.1 1565.91C2792.1 1567.76 2792.83 1569.54 2794.13 1570.85C2795.44 1572.16 2797.22 1572.9 2799.07 1572.91C2800.93 1572.92 2802.72 1572.18 2804.04 1570.87C2805.36 1569.55 2806.1 1567.77 2806.09 1565.91C2806.08 1564.06 2805.34 1562.29 2804.02 1560.98C2802.71 1559.68 2800.92 1558.95 2799.07 1558.96ZM2765.62 1586.05C2774.73 1595.96 2788.6 1604.21 2805.44 1610.82C2833.05 1621.67 2869.45 1628.13 2909.56 1628.13C2949.66 1628.13 2986.08 1621.67 3013.69 1610.82C3030.49 1604.22 3044.35 1595.99 3053.46 1586.11V1631.71C3053.09 1632.3 3052.82 1632.95 3052.68 1633.63C3050.27 1646.61 3034.8 1660.54 3009.01 1670.67C2983.21 1680.81 2948 1687.15 2909.17 1687.15C2871.35 1687.15 2836.98 1681.13 2811.38 1671.45C2785.78 1661.78 2769.66 1648.31 2766.1 1635.68H2766.1C2765.97 1635.32 2765.81 1634.97 2765.62 1634.64L2765.62 1586.05ZM2799.07 1628.9C2797.22 1628.9 2795.46 1629.64 2794.15 1630.94C2792.85 1632.24 2792.11 1634.01 2792.1 1635.85C2792.1 1637.7 2792.83 1639.47 2794.13 1640.79C2795.44 1642.1 2797.22 1642.84 2799.07 1642.85C2800.93 1642.85 2802.72 1642.12 2804.04 1640.81C2805.36 1639.49 2806.1 1637.71 2806.09 1635.85C2806.08 1634 2805.34 1632.22 2804.02 1630.92C2802.71 1629.62 2800.92 1628.89 2799.07 1628.9ZM3053.46 1656.49V1700.43C3053.46 1702.41 3053.19 1704.37 3052.66 1706.34C3050.19 1715.05 3041.95 1724.11 3028.78 1732.06C3028.61 1732.16 3028.44 1732.27 3028.26 1732.37C3027.6 1732.77 3026.92 1733.16 3026.23 1733.55C3022.28 1735.77 3017.95 1737.9 3013.25 1739.89C3003.47 1744.03 2992.19 1747.61 2979.75 1750.47C2979.56 1750.51 2979.38 1750.55 2979.19 1750.59C2977.29 1751.02 2975.38 1751.44 2973.44 1751.83C2973.34 1751.85 2973.24 1751.87 2973.14 1751.89C2971.1 1752.3 2969.04 1752.7 2966.94 1753.07C2966.86 1753.09 2966.78 1753.1 2966.7 1753.12C2964.59 1753.5 2962.43 1753.85 2960.27 1754.19C2960.13 1754.21 2959.99 1754.22 2959.85 1754.24C2958.08 1754.52 2956.3 1754.77 2954.49 1755.01C2953.96 1755.09 2953.42 1755.16 2952.88 1755.23C2950.94 1755.48 2948.98 1755.71 2947 1755.93C2946.76 1755.96 2946.53 1755.99 2946.29 1756.01C2944.25 1756.23 2942.19 1756.43 2940.12 1756.62C2939.76 1756.65 2939.42 1756.69 2939.06 1756.72C2937.31 1756.87 2935.54 1757 2933.77 1757.12C2933.04 1757.17 2932.32 1757.23 2931.59 1757.27C2929.81 1757.39 2928.02 1757.49 2926.22 1757.57C2925.7 1757.6 2925.19 1757.63 2924.67 1757.65C2919.71 1757.86 2914.66 1757.97 2909.56 1757.97C2904.51 1757.97 2899.53 1757.86 2894.62 1757.65C2894.56 1757.65 2894.51 1757.65 2894.46 1757.65C2892.12 1757.55 2889.8 1757.42 2887.49 1757.27C2886.83 1757.23 2886.19 1757.18 2885.53 1757.14C2876.54 1756.51 2867.83 1755.55 2859.49 1754.28C2858.91 1754.19 2858.32 1754.1 2857.74 1754C2856.06 1753.74 2854.38 1753.46 2852.73 1753.17C2852.31 1753.09 2851.91 1753.02 2851.5 1752.95C2849.72 1752.63 2847.97 1752.29 2846.23 1751.94C2845.79 1751.85 2845.35 1751.76 2844.91 1751.67C2843.36 1751.35 2841.82 1751.02 2840.3 1750.67C2839.7 1750.54 2839.11 1750.41 2838.52 1750.27C2826.4 1747.45 2815.39 1743.93 2805.83 1739.89C2804.37 1739.27 2802.96 1738.65 2801.57 1738C2801.23 1737.84 2800.88 1737.68 2800.54 1737.52C2799.51 1737.04 2798.51 1736.53 2797.52 1736.03C2779.06 1726.65 2768.01 1715.19 2766.01 1704.41H2765.99C2765.74 1703.08 2765.62 1701.76 2765.62 1700.43V1657.31C2775.11 1667.45 2789.59 1675.81 2807.21 1682.47C2834.54 1692.8 2870.12 1698.9 2909.17 1698.9C2949.27 1698.9 2985.69 1692.44 3013.3 1681.6C3030.34 1674.9 3044.36 1666.55 3053.46 1656.49L3053.46 1656.49ZM2799.07 1702.47C2797.22 1702.48 2795.46 1703.21 2794.15 1704.52C2792.85 1705.82 2792.11 1707.58 2792.1 1709.42C2792.1 1711.27 2792.83 1713.05 2794.13 1714.36C2795.44 1715.67 2797.22 1716.41 2799.07 1716.42C2800.93 1716.43 2802.72 1715.69 2804.04 1714.38C2805.36 1713.07 2806.1 1711.28 2806.09 1709.42C2806.08 1707.57 2805.34 1705.8 2804.02 1704.49C2802.71 1703.19 2800.92 1702.46 2799.07 1702.47Z" fill="black"/>
<path fill-rule="evenodd" clip-rule="evenodd" d="M2733.56 855.937C2691.4 855.937 2653.3 863.046 2625.23 874.928C2611.19 880.869 2599.64 887.998 2591.32 896.351C2583 904.703 2577.87 914.599 2577.87 925.243V1127.43C2577.87 1131.21 2578.54 1134.88 2579.74 1138.43C2579.81 1138.63 2579.86 1138.82 2579.93 1139.02C2579.93 1139.03 2579.94 1139.03 2579.94 1139.04C2585.93 1156.16 2604.43 1169.59 2629.44 1179.42C2631.56 1180.25 2633.75 1181.05 2635.97 1181.83C2636.05 1181.86 2636.13 1181.89 2636.21 1181.92C2639.93 1183.22 2643.8 1184.43 2647.79 1185.58C2648.05 1185.66 2648.31 1185.74 2648.57 1185.81C2650.35 1186.32 2652.16 1186.81 2653.99 1187.28C2654.23 1187.34 2654.48 1187.4 2654.72 1187.46C2656.61 1187.95 2658.53 1188.42 2660.48 1188.86C2660.64 1188.9 2660.81 1188.94 2660.97 1188.98C2665.24 1189.95 2669.62 1190.84 2674.11 1191.64C2674.22 1191.66 2674.33 1191.68 2674.44 1191.7C2676.26 1192.02 2678.1 1192.32 2679.95 1192.62C2680.57 1192.72 2681.19 1192.81 2681.81 1192.9C2683.42 1193.15 2685.05 1193.38 2686.68 1193.6C2687.4 1193.7 2688.11 1193.8 2688.83 1193.89C2690.58 1194.12 2692.35 1194.32 2694.13 1194.52C2694.73 1194.59 2695.33 1194.65 2695.93 1194.72C2697.3 1194.86 2698.67 1195 2700.05 1195.13C2701.33 1195.25 2702.61 1195.37 2703.91 1195.47C2704.7 1195.54 2705.5 1195.6 2706.29 1195.66C2707.82 1195.77 2709.35 1195.89 2710.9 1195.99C2712.66 1196.1 2714.44 1196.18 2716.22 1196.27C2716.86 1196.3 2717.5 1196.34 2718.15 1196.37C2723.22 1196.58 2728.35 1196.69 2733.56 1196.69C2741.26 1196.69 2748.83 1196.45 2756.22 1195.99C2759.85 1195.77 2763.43 1195.46 2766.97 1195.13C2768.41 1195 2769.85 1194.87 2771.28 1194.72C2771.77 1194.67 2772.25 1194.6 2772.74 1194.55C2774.66 1194.33 2776.57 1194.11 2778.46 1193.87C2778.99 1193.8 2779.51 1193.73 2780.04 1193.66C2781.85 1193.42 2783.65 1193.16 2785.44 1192.89C2785.95 1192.82 2786.45 1192.73 2786.96 1192.65C2789 1192.33 2791.01 1192 2793 1191.64C2793 1191.64 2793.01 1191.64 2793.02 1191.64C2809.52 1188.7 2824.6 1184.56 2837.69 1179.42C2865.3 1168.58 2884.98 1153.33 2888.65 1133.58H2888.63C2889.01 1131.56 2889.21 1129.52 2889.21 1127.43V925.244C2889.21 923.292 2889.04 921.358 2888.71 919.461C2888.67 919.127 2888.6 918.796 2888.5 918.474C2886.84 910.407 2882.29 902.904 2875.76 896.351C2867.45 887.999 2855.89 880.868 2841.86 874.928C2813.79 863.046 2775.72 855.938 2733.56 855.938L2733.56 855.937ZM2733.56 867.687C2774.38 867.687 2811.17 874.73 2837.26 885.771C2850.3 891.292 2860.64 897.805 2867.45 904.636C2872.58 909.794 2875.67 914.96 2876.88 920.161C2873.8 932.818 2858.45 946.282 2833.4 956.122C2807.61 966.254 2772.4 972.6 2733.56 972.6C2694.73 972.6 2659.53 966.255 2633.73 956.122C2608.61 946.254 2593.25 932.744 2590.23 920.057V920.046C2591.46 914.883 2594.54 909.755 2599.64 904.635C2606.44 897.804 2616.79 891.292 2629.83 885.77C2655.91 874.729 2692.74 867.686 2733.56 867.686L2733.56 867.687ZM2589.62 942.273C2598.73 952.179 2612.6 960.434 2629.44 967.047C2657.05 977.892 2693.45 984.305 2733.56 984.305C2773.66 984.305 2810.08 977.891 2837.69 967.047C2854.49 960.447 2868.35 952.214 2877.46 942.33V988.873C2877.32 989.191 2877.2 989.521 2877.12 989.859C2874.7 1002.84 2859.19 1016.77 2833.4 1026.9C2807.6 1037.03 2772.39 1043.38 2733.56 1043.38C2694.72 1043.38 2659.52 1037.03 2633.73 1026.9C2607.93 1016.77 2592.42 1002.84 2590.01 989.859C2589.92 989.472 2589.79 989.095 2589.62 988.736L2589.62 942.273ZM2623.07 985.958C2621.22 985.966 2619.46 986.701 2618.15 988.004C2616.85 989.306 2616.11 991.07 2616.1 992.911C2616.1 994.76 2616.83 996.536 2618.13 997.849C2619.44 999.161 2621.22 999.902 2623.07 999.911C2624.93 999.918 2626.72 999.183 2628.04 997.869C2629.36 996.555 2630.1 994.77 2630.09 992.911C2630.08 991.061 2629.34 989.288 2628.02 987.983C2626.71 986.68 2624.92 985.95 2623.07 985.958ZM2589.62 1013.05C2598.73 1022.96 2612.6 1031.21 2629.44 1037.82C2657.05 1048.67 2693.45 1055.13 2733.56 1055.13C2773.66 1055.13 2810.08 1048.67 2837.69 1037.82C2854.49 1031.22 2868.35 1022.99 2877.46 1013.11V1058.71C2877.09 1059.3 2876.82 1059.95 2876.68 1060.63C2874.27 1073.61 2858.8 1087.54 2833.01 1097.67C2807.21 1107.81 2772 1114.15 2733.17 1114.15C2695.35 1114.15 2660.98 1108.13 2635.38 1098.45C2609.78 1088.78 2593.66 1075.31 2590.1 1062.68H2590.1C2589.97 1062.32 2589.81 1061.97 2589.62 1061.64L2589.62 1013.05ZM2623.07 1055.9C2621.22 1055.9 2619.46 1056.64 2618.15 1057.94C2616.85 1059.24 2616.11 1061.01 2616.1 1062.85C2616.1 1064.7 2616.83 1066.47 2618.13 1067.79C2619.44 1069.1 2621.22 1069.84 2623.07 1069.85C2624.93 1069.85 2626.72 1069.12 2628.04 1067.81C2629.36 1066.49 2630.1 1064.71 2630.09 1062.85C2630.08 1061 2629.34 1059.22 2628.02 1057.92C2626.71 1056.62 2624.92 1055.89 2623.07 1055.9ZM2877.46 1083.49V1127.43C2877.46 1129.41 2877.19 1131.37 2876.66 1133.34C2874.19 1142.05 2865.95 1151.11 2852.78 1159.06C2852.61 1159.16 2852.44 1159.27 2852.26 1159.37C2851.6 1159.77 2850.92 1160.16 2850.23 1160.55C2846.28 1162.77 2841.95 1164.9 2837.25 1166.89C2827.47 1171.03 2816.19 1174.61 2803.75 1177.47C2803.56 1177.51 2803.38 1177.55 2803.19 1177.59C2801.29 1178.02 2799.38 1178.44 2797.44 1178.83C2797.34 1178.85 2797.24 1178.87 2797.14 1178.89C2795.1 1179.3 2793.04 1179.7 2790.94 1180.07C2790.86 1180.09 2790.78 1180.1 2790.7 1180.12C2788.59 1180.5 2786.43 1180.85 2784.27 1181.19C2784.13 1181.21 2783.99 1181.22 2783.85 1181.24C2782.08 1181.52 2780.3 1181.77 2778.49 1182.01C2777.96 1182.09 2777.42 1182.16 2776.88 1182.23C2774.94 1182.48 2772.98 1182.71 2771 1182.93C2770.76 1182.96 2770.53 1182.99 2770.29 1183.01C2768.25 1183.23 2766.19 1183.43 2764.12 1183.62C2763.76 1183.65 2763.42 1183.69 2763.06 1183.72C2761.31 1183.87 2759.54 1184 2757.77 1184.12C2757.04 1184.17 2756.32 1184.23 2755.59 1184.27C2753.81 1184.39 2752.02 1184.49 2750.22 1184.57C2749.7 1184.6 2749.19 1184.63 2748.67 1184.65C2743.71 1184.86 2738.66 1184.97 2733.56 1184.97C2728.51 1184.97 2723.53 1184.86 2718.62 1184.65C2718.56 1184.65 2718.51 1184.65 2718.46 1184.65C2716.12 1184.55 2713.8 1184.42 2711.49 1184.27C2710.83 1184.23 2710.19 1184.18 2709.53 1184.14C2700.54 1183.51 2691.83 1182.55 2683.49 1181.28C2682.91 1181.19 2682.32 1181.1 2681.74 1181C2680.06 1180.74 2678.38 1180.46 2676.73 1180.17C2676.31 1180.09 2675.91 1180.02 2675.5 1179.95C2673.72 1179.63 2671.97 1179.29 2670.23 1178.94C2669.79 1178.85 2669.35 1178.76 2668.91 1178.67C2667.36 1178.35 2665.82 1178.02 2664.3 1177.67C2663.7 1177.54 2663.11 1177.41 2662.52 1177.27C2650.4 1174.45 2639.39 1170.93 2629.83 1166.89C2628.37 1166.27 2626.96 1165.65 2625.57 1165C2625.23 1164.84 2624.88 1164.68 2624.54 1164.52C2623.51 1164.04 2622.51 1163.53 2621.52 1163.03C2603.06 1153.65 2592.01 1142.19 2590.01 1131.41H2589.99C2589.74 1130.08 2589.62 1128.76 2589.62 1127.43V1084.31C2599.11 1094.45 2613.59 1102.81 2631.21 1109.47C2658.54 1119.8 2694.12 1125.9 2733.17 1125.9C2773.27 1125.9 2809.69 1119.44 2837.3 1108.6C2854.34 1101.9 2868.36 1093.55 2877.46 1083.49L2877.46 1083.49ZM2623.07 1129.47C2621.22 1129.48 2619.46 1130.21 2618.15 1131.52C2616.85 1132.82 2616.11 1134.58 2616.1 1136.42C2616.1 1138.27 2616.83 1140.05 2618.13 1141.36C2619.44 1142.67 2621.22 1143.41 2623.07 1143.42C2624.93 1143.43 2626.72 1142.69 2628.04 1141.38C2629.36 1140.07 2630.1 1138.28 2630.09 1136.42C2630.08 1134.57 2629.34 1132.8 2628.02 1131.49C2626.71 1130.19 2624.92 1129.46 2623.07 1129.47Z" fill="black"/>
<path fill-rule="evenodd" clip-rule="evenodd" d="M2054.56 1491.94C2012.4 1491.94 1974.3 1499.05 1946.23 1510.93C1932.19 1516.87 1920.64 1524 1912.32 1532.35C1904 1540.7 1898.87 1550.6 1898.87 1561.24V1763.43C1898.87 1767.21 1899.54 1770.88 1900.74 1774.43C1900.81 1774.63 1900.86 1774.82 1900.93 1775.02C1900.93 1775.03 1900.94 1775.03 1900.94 1775.04C1906.93 1792.16 1925.43 1805.59 1950.44 1815.42C1952.56 1816.25 1954.75 1817.05 1956.97 1817.83C1957.05 1817.86 1957.13 1817.89 1957.21 1817.92C1960.93 1819.22 1964.8 1820.43 1968.79 1821.58C1969.05 1821.66 1969.31 1821.74 1969.57 1821.81C1971.35 1822.32 1973.16 1822.81 1974.99 1823.28C1975.23 1823.34 1975.48 1823.4 1975.72 1823.46C1977.61 1823.95 1979.53 1824.42 1981.48 1824.86C1981.64 1824.9 1981.81 1824.94 1981.97 1824.98C1986.24 1825.95 1990.62 1826.84 1995.11 1827.64C1995.22 1827.66 1995.33 1827.68 1995.44 1827.7C1997.26 1828.02 1999.1 1828.32 2000.95 1828.62C2001.57 1828.71 2002.19 1828.81 2002.81 1828.9C2004.42 1829.15 2006.05 1829.38 2007.68 1829.6C2008.4 1829.7 2009.11 1829.8 2009.83 1829.89C2011.58 1830.12 2013.35 1830.32 2015.13 1830.52C2015.73 1830.59 2016.33 1830.65 2016.93 1830.72C2018.3 1830.86 2019.67 1831 2021.05 1831.13C2022.33 1831.25 2023.61 1831.37 2024.91 1831.47C2025.7 1831.54 2026.5 1831.6 2027.29 1831.66C2028.82 1831.77 2030.35 1831.89 2031.9 1831.99C2033.66 1832.1 2035.44 1832.18 2037.22 1832.27C2037.86 1832.3 2038.5 1832.34 2039.15 1832.37C2044.22 1832.58 2049.35 1832.69 2054.56 1832.69C2062.26 1832.69 2069.83 1832.45 2077.22 1831.99C2080.85 1831.77 2084.43 1831.46 2087.97 1831.13C2089.41 1831 2090.85 1830.87 2092.28 1830.72C2092.77 1830.67 2093.25 1830.6 2093.74 1830.55C2095.66 1830.33 2097.57 1830.11 2099.46 1829.87C2099.99 1829.8 2100.51 1829.73 2101.04 1829.66C2102.85 1829.42 2104.65 1829.16 2106.44 1828.89C2106.95 1828.82 2107.45 1828.73 2107.96 1828.65C2110 1828.33 2112.01 1828 2114 1827.64C2114 1827.64 2114.01 1827.64 2114.02 1827.64C2130.52 1824.7 2145.6 1820.56 2158.69 1815.42C2186.3 1804.58 2205.98 1789.33 2209.65 1769.58H2209.63C2210.01 1767.56 2210.21 1765.52 2210.21 1763.43V1561.24C2210.21 1559.29 2210.04 1557.36 2209.71 1555.46C2209.67 1555.13 2209.6 1554.8 2209.5 1554.47C2207.84 1546.41 2203.29 1538.9 2196.76 1532.35C2188.45 1524 2176.89 1516.87 2162.86 1510.93C2134.79 1499.05 2096.72 1491.94 2054.56 1491.94L2054.56 1491.94ZM2054.56 1503.69C2095.38 1503.69 2132.17 1510.73 2158.26 1521.77C2171.3 1527.29 2181.64 1533.8 2188.45 1540.64C2193.58 1545.79 2196.67 1550.96 2197.88 1556.16C2194.8 1568.82 2179.45 1582.28 2154.4 1592.12C2128.61 1602.25 2093.4 1608.6 2054.56 1608.6C2015.73 1608.6 1980.53 1602.26 1954.73 1592.12C1929.61 1582.25 1914.25 1568.74 1911.23 1556.06V1556.05C1912.46 1550.88 1915.54 1545.76 1920.64 1540.64C1927.44 1533.8 1937.79 1527.29 1950.83 1521.77C1976.91 1510.73 2013.74 1503.69 2054.56 1503.69L2054.56 1503.69ZM1910.62 1578.27C1919.73 1588.18 1933.6 1596.43 1950.44 1603.05C1978.05 1613.89 2014.45 1620.3 2054.56 1620.3C2094.66 1620.3 2131.08 1613.89 2158.69 1603.05C2175.49 1596.45 2189.35 1588.21 2198.46 1578.33V1624.87C2198.32 1625.19 2198.2 1625.52 2198.12 1625.86C2195.7 1638.84 2180.19 1652.77 2154.4 1662.9C2128.6 1673.03 2093.39 1679.38 2054.56 1679.38C2015.72 1679.38 1980.52 1673.03 1954.73 1662.9C1928.93 1652.77 1913.42 1638.84 1911.01 1625.86C1910.92 1625.47 1910.79 1625.1 1910.62 1624.74L1910.62 1578.27ZM1944.07 1621.96C1942.22 1621.97 1940.46 1622.7 1939.15 1624C1937.85 1625.31 1937.11 1627.07 1937.1 1628.91C1937.1 1630.76 1937.83 1632.54 1939.13 1633.85C1940.44 1635.16 1942.22 1635.9 1944.07 1635.91C1945.93 1635.92 1947.72 1635.18 1949.04 1633.87C1950.36 1632.55 1951.1 1630.77 1951.09 1628.91C1951.08 1627.06 1950.34 1625.29 1949.02 1623.98C1947.71 1622.68 1945.92 1621.95 1944.07 1621.96ZM1910.62 1649.05C1919.73 1658.96 1933.6 1667.21 1950.44 1673.82C1978.05 1684.67 2014.45 1691.13 2054.56 1691.13C2094.66 1691.13 2131.08 1684.67 2158.69 1673.82C2175.49 1667.22 2189.35 1658.99 2198.46 1649.11V1694.71C2198.09 1695.3 2197.82 1695.95 2197.68 1696.63C2195.27 1709.61 2179.8 1723.54 2154.01 1733.67C2128.21 1743.81 2093 1750.15 2054.17 1750.15C2016.35 1750.15 1981.98 1744.13 1956.38 1734.45C1930.78 1724.78 1914.66 1711.31 1911.1 1698.68H1911.1C1910.97 1698.32 1910.81 1697.97 1910.62 1697.64L1910.62 1649.05ZM1944.07 1691.9C1942.22 1691.9 1940.46 1692.64 1939.15 1693.94C1937.85 1695.24 1937.11 1697.01 1937.1 1698.85C1937.1 1700.7 1937.83 1702.47 1939.13 1703.79C1940.44 1705.1 1942.22 1705.84 1944.07 1705.85C1945.93 1705.85 1947.72 1705.12 1949.04 1703.81C1950.36 1702.49 1951.1 1700.71 1951.09 1698.85C1951.08 1697 1950.34 1695.22 1949.02 1693.92C1947.71 1692.62 1945.92 1691.89 1944.07 1691.9ZM2198.46 1719.49V1763.43C2198.46 1765.41 2198.19 1767.37 2197.66 1769.34C2195.19 1778.05 2186.95 1787.11 2173.78 1795.06C2173.61 1795.16 2173.44 1795.27 2173.26 1795.37C2172.6 1795.77 2171.92 1796.16 2171.23 1796.55C2167.28 1798.77 2162.95 1800.9 2158.25 1802.89C2148.47 1807.03 2137.19 1810.61 2124.75 1813.47C2124.56 1813.51 2124.38 1813.55 2124.19 1813.59C2122.29 1814.02 2120.38 1814.44 2118.44 1814.83C2118.34 1814.85 2118.24 1814.87 2118.14 1814.89C2116.1 1815.3 2114.04 1815.7 2111.94 1816.07C2111.86 1816.09 2111.78 1816.1 2111.7 1816.12C2109.59 1816.5 2107.43 1816.85 2105.27 1817.19C2105.13 1817.21 2104.99 1817.22 2104.85 1817.24C2103.08 1817.52 2101.3 1817.77 2099.49 1818.01C2098.96 1818.09 2098.42 1818.16 2097.88 1818.23C2095.94 1818.48 2093.98 1818.71 2092 1818.93C2091.76 1818.96 2091.53 1818.99 2091.29 1819.01C2089.25 1819.23 2087.19 1819.43 2085.12 1819.62C2084.76 1819.65 2084.42 1819.69 2084.06 1819.72C2082.31 1819.87 2080.54 1820 2078.77 1820.12C2078.04 1820.17 2077.32 1820.23 2076.59 1820.27C2074.81 1820.39 2073.02 1820.49 2071.22 1820.57C2070.7 1820.6 2070.19 1820.63 2069.67 1820.65C2064.71 1820.86 2059.66 1820.97 2054.56 1820.97C2049.51 1820.97 2044.53 1820.86 2039.62 1820.65C2039.56 1820.65 2039.51 1820.65 2039.46 1820.65C2037.12 1820.55 2034.8 1820.42 2032.49 1820.27C2031.83 1820.23 2031.19 1820.18 2030.53 1820.14C2021.54 1819.51 2012.83 1818.55 2004.49 1817.28C2003.91 1817.19 2003.32 1817.1 2002.74 1817C2001.06 1816.74 1999.38 1816.46 1997.73 1816.17C1997.31 1816.09 1996.91 1816.02 1996.5 1815.95C1994.72 1815.63 1992.97 1815.29 1991.23 1814.94C1990.79 1814.85 1990.35 1814.76 1989.91 1814.67C1988.36 1814.35 1986.82 1814.02 1985.3 1813.67C1984.7 1813.54 1984.11 1813.41 1983.52 1813.27C1971.4 1810.45 1960.39 1806.93 1950.83 1802.89C1949.37 1802.27 1947.96 1801.65 1946.57 1801C1946.23 1800.84 1945.88 1800.68 1945.54 1800.52C1944.51 1800.04 1943.51 1799.53 1942.52 1799.03C1924.06 1789.65 1913.01 1778.19 1911.01 1767.41H1910.99C1910.74 1766.08 1910.62 1764.76 1910.62 1763.43V1720.31C1920.11 1730.45 1934.59 1738.81 1952.21 1745.47C1979.54 1755.8 2015.12 1761.9 2054.17 1761.9C2094.27 1761.9 2130.69 1755.44 2158.3 1744.6C2175.34 1737.9 2189.36 1729.55 2198.46 1719.49L2198.46 1719.49ZM1944.07 1765.47C1942.22 1765.48 1940.46 1766.21 1939.15 1767.52C1937.85 1768.82 1937.11 1770.58 1937.1 1772.42C1937.1 1774.27 1937.83 1776.05 1939.13 1777.36C1940.44 1778.67 1942.22 1779.41 1944.07 1779.42C1945.93 1779.43 1947.72 1778.69 1949.04 1777.38C1950.36 1776.07 1951.1 1774.28 1951.09 1772.42C1951.08 1770.57 1950.34 1768.8 1949.02 1767.49C1947.71 1766.19 1945.92 1765.46 1944.07 1765.47Z" fill="black"/>
<path d="M1040.61 368.812L935.401 326.728C932.896 325.721 930.098 325.721 927.593 326.728L822.384 368.812C818.388 370.414 815.766 374.277 815.766 378.583V504.833C815.766 509.138 818.386 513.001 822.384 514.604L927.395 556.61L927.405 556.615L927.592 556.689C928.846 557.192 930.171 557.439 931.495 557.439C932.818 557.439 934.146 557.192 935.397 556.689L935.585 556.615L935.594 556.61L1040.6 514.604C1044.6 513.001 1047.22 509.138 1047.22 504.833V378.583C1047.22 374.278 1044.6 370.415 1040.6 368.812H1040.61ZM920.979 531.375L836.812 497.71V394.122L920.979 427.787V531.375ZM931.5 409.334L854.614 378.582L931.5 347.831L1008.38 378.582L931.5 409.334ZM1026.19 497.713L942.021 531.378V427.794L1026.19 394.127V497.713ZM1152.44 315.458C1152.44 360.42 1120.87 397.984 1078.79 407.604V385.67C1109.1 376.548 1131.4 348.702 1131.4 315.458C1131.4 274.854 1098.35 241.812 1057.75 241.812H1036.71C1030.89 241.812 1026.19 237.107 1026.19 231.291C1026.19 179.078 983.713 136.604 931.5 136.604C879.287 136.604 836.812 179.078 836.812 231.291C836.812 237.107 832.108 241.812 826.292 241.812H805.25C764.646 241.812 731.604 274.854 731.604 315.458C731.604 348.702 753.895 376.546 784.208 385.67V407.604C742.125 397.984 710.562 360.42 710.562 315.458C710.562 263.246 753.037 220.771 805.25 220.771H816.244C821.577 161.871 871.23 115.562 931.502 115.562C991.774 115.562 1041.42 161.871 1046.76 220.771H1057.75C1109.97 220.771 1152.44 263.246 1152.44 315.458H1152.44Z" fill="black"/>
<path d="M439.609 708.812L334.401 666.728C331.896 665.721 329.098 665.721 326.593 666.728L221.384 708.812C217.388 710.414 214.766 714.277 214.766 718.583V844.833C214.766 849.138 217.386 853.001 221.384 854.604L326.395 896.61L326.405 896.615L326.592 896.689C327.846 897.192 329.171 897.439 330.495 897.439C331.818 897.439 333.146 897.192 334.397 896.689L334.585 896.615L334.594 896.61L439.605 854.604C443.601 853.001 446.223 849.138 446.223 844.833V718.583C446.223 714.278 443.603 710.415 439.605 708.812H439.609ZM319.979 871.375L235.812 837.71V734.122L319.979 767.787V871.375ZM330.5 749.334L253.614 718.582L330.5 687.831L407.378 718.582L330.5 749.334ZM425.187 837.713L341.021 871.378V767.794L425.187 734.127V837.713ZM551.437 655.458C551.437 700.42 519.875 737.984 477.792 747.604V725.67C508.105 716.548 530.396 688.702 530.396 655.458C530.396 614.854 497.354 581.812 456.75 581.812H435.708C429.892 581.812 425.187 577.107 425.187 571.291C425.187 519.078 382.713 476.604 330.5 476.604C278.287 476.604 235.812 519.078 235.812 571.291C235.812 577.107 231.108 581.812 225.292 581.812H204.25C163.646 581.812 130.604 614.854 130.604 655.458C130.604 688.702 152.895 716.546 183.208 725.67V747.604C141.125 737.984 109.562 700.42 109.562 655.458C109.562 603.246 152.037 560.771 204.25 560.771H215.244C220.577 501.871 270.23 455.562 330.502 455.562C390.774 455.562 440.424 501.871 445.76 560.771H456.754C508.967 560.771 551.442 603.246 551.442 655.458H551.437Z" fill="black"/>
<line x1="1304.41" y1="842.478" x2="1062.41" y2="592.478" stroke="black" stroke-width="10"/>
<line x1="1307.74" y1="843.993" x2="614.741" y2="807.993" stroke="black" stroke-width="10"/>
<line x1="1350.99" y1="1072.01" x2="993.987" y2="1338.01" stroke="black" stroke-width="10"/>
<line x1="2008.39" y1="798.733" x2="2424.39" y2="544.733" stroke="black" stroke-width="10"/>
<line x1="1972.53" y1="1194.24" x2="2690.53" y2="1424.24" stroke="black" stroke-width="10"/>
<line x1="1969.53" y1="1194.22" x2="2527.53" y2="1022.22" stroke="black" stroke-width="10"/>
<line x1="1975.91" y1="1198.08" x2="2015.91" y2="1411.08" stroke="black" stroke-width="10"/>
<line y1="-10" x2="626.231" y2="-10" transform="matrix(-0.815993 0.578062 -0.541362 -0.84079 2976 846)" stroke="#FF0000" stroke-width="20"/>
<line y1="-10" x2="626.231" y2="-10" transform="matrix(0.815993 0.578062 -0.541362 0.84079 2465 846)" stroke="#FF0000" stroke-width="20"/>
<path d="M885.324 1391.76H583.287C566.932 1391.76 553.755 1404.92 553.755 1421.29V1723.72C553.755 1740.08 566.916 1753.26 583.287 1753.26H885.722C893.299 1753.26 901.276 1750.06 906.475 1744.48C912.061 1738.89 914.854 1731.32 914.854 1723.32L914.838 1421.29C914.838 1404.92 901.677 1391.75 885.321 1391.75L885.324 1391.76ZM898.085 1736.1C894.891 1739.29 890.509 1741.28 885.71 1741.28H583.291C573.71 1741.28 565.732 1733.31 565.732 1723.72V1421.3C565.732 1411.72 573.709 1403.75 583.291 1403.75H885.328C894.91 1403.75 902.887 1411.72 902.887 1421.3V1723.34C902.872 1728.12 901.282 1732.51 898.089 1736.1L898.085 1736.1Z" fill="black"/>
<path d="M863.77 1432.85H605.23C599.243 1432.85 594.861 1437.23 594.861 1443.22V1472.35C588.473 1472.75 583.289 1477.93 583.289 1484.32V1524.22C583.289 1530.61 588.473 1535.79 594.861 1536.2V1606.82C588.473 1607.22 583.289 1612.4 583.289 1618.79V1658.69C583.289 1665.08 588.473 1670.27 594.861 1670.67V1701.79C594.861 1707.78 599.243 1712.16 605.23 1712.16H863.77C869.757 1712.16 874.139 1707.78 874.139 1701.79L874.155 1443.24C874.155 1437.25 869.757 1432.85 863.77 1432.85L863.77 1432.85ZM591.267 1524.22V1484.32C591.267 1481.93 592.856 1480.33 595.263 1480.33H602.438C604.829 1480.33 606.434 1481.92 606.434 1484.32V1524.22C606.434 1526.62 604.845 1528.22 602.438 1528.22H595.263C592.856 1528.22 591.267 1526.62 591.267 1524.22ZM591.267 1658.68V1618.78C591.267 1616.39 592.856 1614.78 595.263 1614.78H602.438C604.829 1614.78 606.434 1616.37 606.434 1618.78V1658.68C606.434 1661.07 604.845 1662.68 602.438 1662.68H595.263C592.856 1662.68 591.267 1661.09 591.267 1658.68ZM866.163 1701.77C866.163 1702.98 864.96 1704.17 863.772 1704.17H605.231C604.028 1704.17 602.84 1702.96 602.84 1701.77V1670.65C609.227 1670.25 614.412 1665.07 614.412 1658.68V1618.78C614.412 1612.39 609.227 1607.2 602.84 1606.8V1536.2C609.227 1535.8 614.412 1530.61 614.412 1524.22V1484.32C614.412 1477.93 609.227 1472.75 602.84 1472.35V1443.22C602.84 1442.01 604.043 1440.83 605.231 1440.83H863.772C864.975 1440.83 866.163 1442.03 866.163 1443.22V1701.77Z" fill="black"/>
<path d="M789.168 1607.62C794.754 1598.04 797.947 1587.27 797.947 1575.29C797.947 1562.92 794.352 1551.35 787.98 1541.38L803.934 1525.43C809.921 1519.44 809.921 1510.26 803.934 1504.27C797.947 1498.28 788.767 1498.28 782.78 1504.27L766.425 1520.63C757.244 1515.44 746.474 1512.25 734.902 1512.25C722.928 1512.25 712.158 1515.44 702.576 1521.43L685.419 1504.27C679.432 1498.28 670.251 1498.28 664.264 1504.27C658.277 1510.26 658.277 1519.44 664.264 1525.43L681.422 1542.58C675.435 1552.17 672.241 1563.34 672.241 1575.29C672.241 1586.87 675.435 1597.64 681.021 1606.82L665.067 1622.77C662.274 1625.56 660.685 1629.56 660.685 1633.54C660.685 1637.54 662.274 1641.12 665.067 1644.31C667.859 1647.1 671.856 1648.69 675.837 1648.69C679.833 1648.69 683.413 1647.1 686.607 1644.31L702.16 1628.76C711.741 1634.75 723.314 1638.73 735.672 1638.73C747.646 1638.73 759.218 1635.13 768.783 1629.14L783.95 1644.31C786.743 1647.1 790.739 1648.69 794.72 1648.69C798.717 1648.69 802.296 1647.1 805.49 1644.31C808.283 1641.52 809.872 1637.52 809.872 1633.54C809.872 1629.55 808.283 1625.97 805.49 1622.77L789.168 1607.62ZM788.767 1509.86C791.56 1507.06 795.942 1507.06 798.734 1509.86C801.527 1512.65 801.527 1517.03 798.734 1519.82L783.567 1534.99C780.373 1531.4 777.179 1528.2 773.198 1525.41L788.767 1509.86ZM670.267 1519.84C667.474 1517.05 667.474 1512.66 670.267 1509.87C673.06 1507.08 677.442 1507.08 680.234 1509.87L696.189 1525.83C692.593 1528.62 689.014 1532.21 686.221 1535.79L670.267 1519.84ZM680.234 1638.34C677.441 1641.13 673.059 1641.13 670.267 1638.34C669.063 1637.14 668.276 1635.15 668.276 1633.56C668.276 1631.57 669.079 1629.96 670.267 1628.77L685.033 1614.01C687.826 1617.6 691.02 1621.18 694.615 1623.97L680.234 1638.34ZM680.234 1575.29C680.234 1544.97 704.968 1520.24 735.291 1520.24C765.613 1520.24 790.347 1544.97 790.347 1575.29C790.363 1605.61 765.629 1630.35 735.307 1630.35C704.587 1630.35 680.241 1605.62 680.241 1575.29H680.234ZM798.734 1638.34C795.941 1641.13 791.559 1641.13 788.767 1638.34L774.803 1624.38C778.398 1621.58 781.592 1617.99 784.77 1614.41L799.136 1628.77C800.339 1629.98 801.126 1631.97 801.126 1633.56C801.126 1635.15 800.339 1636.73 798.734 1638.34Z" fill="black"/>
<path d="M734.902 1534.59C712.559 1534.59 694.197 1552.93 694.197 1575.29C694.197 1597.63 712.558 1616 734.902 1616C757.245 1616 775.606 1597.65 775.606 1575.29C775.591 1552.95 757.646 1534.59 734.902 1534.59ZM734.902 1608C716.942 1608 702.191 1593.23 702.191 1575.29C702.191 1557.33 716.957 1542.58 734.902 1542.58C752.862 1542.58 767.612 1557.34 767.612 1575.29C767.612 1593.25 753.247 1608 734.902 1608Z" fill="black"/>
<defs>
<clipPath id="clip0_6_113">
<rect width="462" height="450" fill="white" transform="translate(2427 111)"/>
</clipPath>
</defs>
</svg>
