<svg width="581" height="174" viewBox="0 0 581 174" fill="none" xmlns="http://www.w3.org/2000/svg">
<rect width="581" height="174" fill="white"/>
<g clip-path="url(#clip0_1_7)">
<path d="M317.59 68.806C311.605 68.806 307.148 71.7449 307.148 78.818C307.148 84.1471 310.086 87.8464 317.268 87.8464C323.356 87.8464 327.49 84.2595 327.49 78.5979C327.49 72.1819 323.79 68.806 317.59 68.806ZM305.62 118.746C304.204 120.484 302.792 122.331 302.792 124.511C302.792 128.859 308.337 130.167 315.954 130.167C322.264 130.167 330.859 129.726 330.859 123.859C330.859 120.372 326.724 120.156 321.499 119.828L305.62 118.746ZM337.821 69.135C339.776 71.6379 341.846 75.1198 341.846 80.124C341.846 92.199 332.381 99.27 318.677 99.27C315.192 99.27 312.037 98.8359 310.081 98.2929L306.49 104.058L317.15 104.709C335.972 105.908 347.065 106.453 347.065 120.917C347.065 133.431 336.08 140.498 317.15 140.498C297.46 140.498 289.954 135.493 289.954 126.9C289.954 122.002 292.13 119.397 295.937 115.802C292.346 114.284 291.151 111.566 291.151 108.627C291.151 106.232 292.346 104.057 294.307 101.989C296.265 99.9235 298.44 97.8537 301.051 95.4611C295.721 92.8507 291.695 87.1935 291.695 79.1421C291.695 66.6331 299.964 58.0421 316.605 58.0421C321.284 58.0421 324.114 58.4727 326.616 59.1295H347.831V68.3741L337.821 69.135Z" fill="#413000"/>
<path d="M366.98 49.366C360.777 49.366 357.189 45.7728 357.189 39.5696C357.189 33.3742 360.778 29.9992 366.98 29.9992C373.29 29.9992 376.88 33.3742 376.88 39.5696C376.88 45.7727 373.29 49.366 366.98 49.366ZM352.944 114.742V106.152L358.494 105.393C360.018 105.172 360.234 104.848 360.234 103.213V71.2297C360.234 70.0355 359.909 69.2707 358.818 68.9469L352.944 66.8781L354.14 58.0695H376.661V103.213C376.661 104.957 376.766 105.173 378.402 105.394L383.951 106.153V114.743H352.943" fill="#413000"/>
<path d="M426.97 110.526C422.29 112.808 415.438 114.875 409.234 114.875C396.289 114.875 391.395 109.658 391.395 97.3601V68.8601C391.395 68.2087 391.395 67.7717 390.521 67.7717H382.907V58.0901C392.484 56.9993 396.288 52.2117 397.485 40.3541H407.821V55.8071C407.821 56.5658 407.821 56.8945 408.693 56.8945H424.031V67.7715H407.822V93.7705C407.822 100.19 409.347 102.69 415.218 102.69C418.268 102.69 421.419 101.931 424.03 100.951L426.97 110.526Z" fill="#413000"/>
<path d="M265.78 81.977L216.035 32.2381C213.173 29.3733 208.527 29.3733 205.661 32.2381L195.332 42.5681L208.434 55.6701C211.48 54.6417 214.971 55.3312 217.398 57.7585C219.837 60.2009 220.522 63.7219 219.468 66.778L232.096 79.406C235.151 78.3532 238.676 79.0334 241.115 81.4772C244.526 84.8868 244.526 90.4117 241.115 93.8222C237.704 97.2338 232.179 97.2338 228.766 93.8222C226.202 91.2557 225.567 87.4877 226.866 84.328L215.089 72.551L215.088 103.542C215.92 103.954 216.704 104.503 217.397 105.193C220.807 108.602 220.807 114.126 217.397 117.541C213.987 120.95 208.459 120.95 205.052 117.541C201.642 114.126 201.642 108.602 205.052 105.193C205.895 104.352 206.87 103.715 207.911 103.288V72.0091C206.87 71.5841 205.896 70.9521 205.052 70.1041C202.469 67.5231 201.847 63.7321 203.171 60.5602L190.255 47.6422L156.149 81.7472C153.284 84.6142 153.284 89.2602 156.149 92.1252L205.891 141.864C208.755 144.729 213.4 144.729 216.267 141.864L265.779 92.3602C268.644 89.494 268.644 84.8466 265.779 81.9812" fill="#F05133"/>
</g>
<defs>
<clipPath id="clip0_1_7">
<rect width="272.96" height="114.01" fill="white" transform="translate(154 30)"/>
</clipPath>
</defs>
</svg>
